Coordinates
version=1
nRows=33
nColumns=33
inDegrees=yes

Units are S.I. units (second, meters, Newtons, ...)
Angles are in degrees.

endheader
time	ground_thorax_rot_x	ground_thorax_rot_y	ground_thorax_rot_z	ground_thorax_tx	ground_thorax_ty	ground_thorax_tz	clav_prot_r	clav_elev_r	scapula_abduction_r	scapula_elevation_r	scapula_upward_rot_r	scapula_winging_r	shoulder_elv_r	plane_of_elev_r	axial_rot_r	elbow_flexion_r	pro_sup_r	wrist_flex_r	wrist_dev_r	clav_prot_l	clav_elev_l	scapula_abduction_l	scapula_elevation_l	scapula_upward_rot_l	scapula_winging_l	shoulder_elv_l	plane_of_elev_l	axial_rot_l	elbow_flexion_l	pro_sup_l	wrist_flex_l	wrist_dev_l	
2.1600	-40.335770	-6.647708	4.517769	-59.058848	799.608738	8.060202	-4.656036	-45.000000	44.999999	-45.000000	24.135272	-2270.186729	-2458.598834	19.969065	-180.000000	2527.545604	-126.989427	15.111019	12.160587	17.649173	40.738762	-44.999983	-41.088538	-31.764589	1878.063831	-1181.146317	135.618856	-179.576074	1445.155840	373.080444	14.171155	-17.584789	
2.1700	-39.990281	-6.947447	4.694099	-57.709587	797.808152	8.227163	-4.323884	-45.000000	44.999999	-45.000000	23.191675	-2269.916855	-2458.680838	19.956527	-180.000000	2527.502690	-127.065900	14.964406	11.934425	17.551164	40.309528	-44.999969	-40.659766	-32.052444	1878.045338	-1181.125337	135.604864	-179.635082	1444.983016	373.171206	14.148464	-17.563639	
2.1800	-39.650603	-7.252980	4.862515	-56.496002	796.096180	8.365640	-3.977203	-45.000000	44.999998	-45.000000	22.222071	-2269.647635	-2458.764041	19.954421	-180.000000	2527.451881	-127.131142	14.825649	11.720162	17.435307	39.843497	-44.999944	-40.247514	-32.386002	1878.037850	-1181.082060	135.565420	-179.634917	1444.813895	373.243037	14.131774	-17.546972	
2.1900	-39.344240	-7.462600	4.916160	-55.563390	794.576722	8.448850	-3.772551	-45.000000	44.999996	-45.000000	21.548048	-2269.428962	-2458.792495	19.916480	-180.000000	2527.428674	-127.201352	14.671514	11.506233	17.352530	39.482116	-44.999901	-39.882230	-32.480611	1878.036967	-1181.107114	135.598638	-179.721886	1444.663638	373.255767	14.082532	-17.531386	
2.2000	-39.068560	-7.618751	4.898254	-54.943761	793.257879	8.468416	-3.640224	-45.000000	44.999994	-45.000000	21.036489	-2269.248320	-2458.784655	19.866110	-180.000000	2527.424722	-127.246793	14.517773	11.312694	17.285986	39.195619	-44.999822	-39.564577	-32.465571	1878.055354	-1181.158434	135.658393	-179.816854	1444.534125	373.224968	14.010936	-17.525362	
2.2100	-38.826972	-7.724205	4.814758	-54.687255	792.159165	8.414379	-3.564991	-45.000000	44.999989	-45.000000	20.660415	-2269.108018	-2458.740837	19.809998	-180.000000	2527.437404	-127.239885	14.372551	11.150120	17.232598	39.000366	-44.999681	-39.300035	-32.369071	1878.093600	-1181.222266	135.733134	-179.907214	1444.429583	373.159791	13.916859	-17.533680	
2.2200	-38.620528	-7.797669	4.692514	-54.811199	791.271906	8.284590	-3.508215	-45.000000	44.999979	-45.000000	20.351950	-2269.007684	-2458.669877	19.759132	-180.000000	2527.458142	-127.141150	14.253264	11.033374	17.189740	38.879948	-44.999429	-39.095516	-32.252201	1878.158298	-1181.288310	135.796562	-179.970326	1444.347134	373.081192	13.812038	-17.559700	
2.2300	-38.447283	-7.856990	4.556390	-55.316035	790.573835	8.082795	-3.438561	-45.000000	44.999963	-45.000000	20.040919	-2268.937143	-2458.579654	19.719357	-180.000000	2527.475143	-126.904328	14.164216	10.960406	17.150146	38.823594	-44.998976	-38.952329	-32.178880	1878.236596	-1181.337961	135.839680	-179.994199	1444.286744	373.009757	13.701321	-17.605516	
2.2400	-38.308949	-7.909211	4.421154	-56.198871	790.041725	7.816584	-3.348937	-45.000000	44.999934	-45.000000	19.718682	-2268.903450	-2458.468847	19.690187	-180.000000	2527.484214	-126.478239	14.117744	10.935260	17.124590	38.815615	-44.998167	-38.873355	-32.158181	1878.335265	-1181.383695	135.858812	-179.999786	1444.243630	372.960339	13.593494	-17.667981	
2.2500	-38.201995	-7.958040	4.294807	-57.454221	789.652528	7.496243	-3.236311	-45.000000	44.999882	-45.000000	19.359427	-2268.894211	-2458.338622	19.666676	-180.000000	2527.472736	-125.804956	14.105783	10.937749	17.109393	38.843570	-44.996714	-38.857373	-32.213633	1878.424935	-1181.415057	135.871602	-179.999619	1444.217555	372.941694	13.486450	-17.744333	
2.2600	-38.131469	-8.029892	4.211374	-59.074286	789.384154	7.133477	-3.090136	-45.000000	44.999788	-45.000000	18.946503	-2268.922616	-2458.190312	19.642249	-180.000000	2527.433533	-124.792417	14.132799	10.961901	17.131851	38.904907	-44.994121	-38.926826	-32.407240	1878.495961	-1181.438495	135.877805	-179.999311	1444.214567	372.961663	13.379241	-17.830255	
2.2700	-38.097808	-8.135393	4.179940	-61.049181	789.216174	6.739421	-2.911078	-45.000000	44.999621	-45.000000	18.467581	-2268.985905	-2458.029066	19.614538	-180.000000	2527.362365	-123.344930	14.188968	10.990228	17.196397	39.005848	-44.989447	-39.078080	-32.764563	1878.535050	-1181.441335	135.890045	-179.998784	1444.236017	373.021936	13.257436	-17.924515	
2.2800	-38.100625	-8.281005	4.204148	-63.366618	789.130529	6.323046	-2.701623	-45.000000	44.999320	-45.000000	17.933375	-2269.093805	-2457.855603	19.585164	-180.000000	2527.255629	-121.376044	14.284767	11.025097	17.309075	39.136498	-44.981160	-39.304460	-33.285565	1878.563700	-1181.429752	135.897317	-179.997773	1444.283533	373.124349	13.127411	-18.025858	
2.2900	-38.133914	-8.458762	4.273282	-66.012002	789.111998	5.889680	-2.467681	-45.000000	44.998783	-45.000000	17.329416	-2269.241319	-2457.680221	19.564015	-180.000000	2527.108366	-118.814419	14.417017	11.053256	17.465509	39.266779	-44.966075	-39.582018	-33.938141	1878.583611	-1181.397000	135.901639	-179.996146	1444.342329	373.267054	12.983172	-18.133303	
2.3000	-38.193631	-8.674855	4.392262	-68.968702	789.148747	5.441200	-2.209451	-45.000000	44.997818	-45.000000	16.640616	-2269.426734	-2457.507335	19.551164	-180.000000	2526.907766	-115.589607	14.593706	11.068141	17.679106	39.376366	-44.939725	-39.910023	-34.721167	1878.598026	-1181.352482	135.898022	-179.992721	1444.414425	373.446942	12.841700	-18.245378	
2.3100	-38.273289	-8.924810	4.546411	-72.219044	789.232781	4.976520	-1.920941	-45.000000	44.996096	-45.000000	15.850123	-2269.630447	-2457.348988	19.550426	-180.000000	2526.651430	-111.655315	14.815729	11.057302	17.921979	39.446755	-44.890648	-40.263524	-35.587366	1878.607333	-1181.291627	135.894673	-179.988009	1444.484847	373.653747	12.710218	-18.359931	
2.3200	-38.366105	-9.182446	4.704684	-75.745225	789.360299	4.493753	-1.633248	-45.000000	44.992995	-45.000000	15.059324	-2269.852479	-2457.182888	19.547358	-180.000000	2526.358232	-107.146753	15.076947	11.019107	18.140083	39.496433	-44.807974	-40.632711	-36.489013	1878.606421	-1181.212987	135.886356	-179.983733	1444.555893	373.908198	12.590285	-18.472122	
2.3300	-38.468365	-9.488347	4.898776	-79.530683	789.531622	3.991700	-1.301897	-45.000000	44.987483	-45.000000	14.183916	-2270.073659	-2457.026200	19.544910	-180.000000	2526.033157	-102.113274	15.378780	10.941617	18.305548	39.527742	-44.645266	-41.025136	-37.440855	1878.565015	-1181.101489	135.876535	-179.982127	1444.623525	374.198821	12.481344	-18.578731	
2.3400	-38.580820	-9.826374	5.116053	-83.560356	789.750961	3.471528	-0.966210	-45.000000	44.977490	-45.000000	13.298326	-2270.311596	-2456.866303	19.540181	-180.000000	2525.707842	-96.821565	15.693974	10.825873	18.418477	39.580697	-44.394606	-41.455335	-38.442869	1878.456260	-1180.945102	135.866522	-179.983217	1444.704852	374.564223	12.371905	-18.678814	
2.3500	-38.706434	-10.178172	5.336036	-87.820366	790.025747	2.936168	-0.634929	-45.000000	44.959926	-45.000000	12.447440	-2270.565620	-2456.698188	19.528485	-180.000000	2525.413250	-91.547784	16.004860	10.683319	18.476026	39.649886	-44.072571	-41.912138	-39.454419	1878.310389	-1180.758793	135.848454	-179.986819	1444.790938	375.030299	12.255699	-18.772101	
2.3600	-38.841759	-10.501006	5.522651	-92.296780	790.365911	2.389746	-0.353850	-45.000000	44.927523	-45.000000	11.715060	-2270.842057	-2456.500126	19.508560	-180.000000	2525.187497	-86.728564	16.275770	10.529284	18.466508	39.732462	-43.697292	-42.382415	-40.418304	1878.147782	-1180.553209	135.815066	-179.991856	1444.886607	375.655388	12.117945	-18.861790	
2.3700	-38.982036	-10.897123	5.776547	-96.974572	790.783203	1.836202	-0.039087	-45.000000	44.872105	-45.000000	10.814537	-2271.108805	-2456.315771	19.502398	-180.000000	2525.007849	-82.437470	16.506622	10.363361	18.446839	39.786966	-43.224837	-42.879726	-41.404706	1877.947262	-1180.332066	135.794714	-179.996690	1444.999984	376.406488	11.970614	-18.956251	
2.3800	-39.117247	-11.356457	6.095592	-101.836457	791.290698	1.278912	0.315115	-45.000000	44.765511	-45.000000	9.662841	-2271.332085	-2456.157641	19.525547	-180.000000	2524.865325	-78.767632	16.693133	10.187374	18.419594	39.807523	-42.662210	-43.376171	-42.365329	1877.733357	-1180.108063	135.796024	-179.999363	1445.131108	377.280121	11.833656	-19.061877	
2.3900	-39.249307	-11.840155	6.438617	-106.862517	791.902306	0.720213	0.697556	-45.000000	44.595015	-45.000000	8.322140	-2271.484860	-2456.014996	19.557250	-180.000000	2524.745702	-75.667361	16.843490	10.009418	18.374556	39.800417	-42.042819	-43.850720	-43.244699	1877.544373	-1179.905261	135.817905	-180.000000	1445.276208	378.262946	11.717740	-19.181571	
2.4000	-39.364869	-12.324825	6.810212	-112.030475	792.632250	0.161952	1.132765	-45.000000	44.235653	-45.000000	6.641240	-2271.467880	-2455.897503	19.611638	-180.000000	2524.637038	-73.056047	16.988110	9.822550	18.248740	39.776467	-41.374150	-44.256863	-43.950682	1877.409973	-1179.738190	135.875773	-180.000000	1445.414579	379.346838	11.655094	-19.323064	
2.4100	-39.465807	-12.783909	7.179666	-117.315918	793.494333	-0.394059	1.568636	-45.000000	43.745650	-45.000000	4.746943	-2271.319645	-2455.791203	19.674668	-180.000000	2524.526466	-70.813270	17.130651	9.637926	18.075338	39.733978	-40.684484	-44.588214	-44.498509	1877.329972	-1179.605935	135.971078	-180.000000	1445.554990	380.528875	11.632255	-19.490177	
2.4200	-39.545533	-13.185030	7.545399	-122.692744	794.501071	-0.945558	2.009682	-45.000000	43.023137	-45.000000	2.529669	-2270.975587	-2455.703550	19.770478	-180.000000	2524.412010	-68.882467	17.289306	9.450309	17.841964	39.671746	-40.009034	-44.809187	-44.835845	1877.329427	-1179.511879	136.117661	-180.000000	1445.677764	381.823262	11.671158	-19.693216	
2.4300	-39.620795	-13.411757	7.773174	-128.133398	795.662707	-1.489910	2.300493	-45.000000	42.241724	-45.000000	0.538845	-2270.599244	-2455.564030	19.855265	-180.000000	2524.332673	-67.407605	17.427409	9.298263	17.599209	39.598636	-39.436820	-44.934803	-44.980053	1877.425445	-1179.457118	136.268804	-180.000000	1445.795164	383.276327	11.707280	-19.924787	
2.4400	-39.684986	-13.551587	7.965504	-133.609644	796.986491	-2.024230	2.565368	-45.000000	41.340081	-45.000000	-1.524036	-2270.147631	-2455.413616	19.967918	-180.000000	2524.269583	-66.294937	17.569192	9.166836	17.353785	39.493224	-38.927701	-44.982344	-45.000000	1877.570533	-1179.424424	136.464266	-180.000000	1445.905360	384.842083	11.766333	-20.194881	
2.4500	-39.750677	-13.587701	8.059596	-139.092714	798.476302	-2.545488	2.705908	-45.000000	40.561610	-45.000000	-3.251760	-2269.804746	-2455.219474	20.074576	-180.000000	2524.236243	-65.555146	17.681674	9.080278	17.167791	39.370872	-38.485985	-45.000000	-45.000000	1877.735783	-1179.391538	136.655031	-180.000000	1446.034760	386.491251	11.787932	-20.489065	
2.4600	-39.813898	-13.586312	8.127673	-144.554131	800.132715	-3.050785	2.834307	-45.000000	39.815915	-45.000000	-4.907622	-2269.492333	-2455.018442	20.197239	-180.000000	2524.213054	-65.017958	17.795280	9.013387	17.009601	39.240043	-38.065159	-45.000000	-45.000000	1877.904548	-1179.350159	136.851294	-180.000000	1446.170388	388.154006	11.809260	-20.808705	
2.4700	-39.883407	-13.480961	8.075086	-149.966322	801.953532	-3.537206	2.859635	-45.000000	39.245480	-45.000000	-6.112396	-2269.313403	-2454.771949	20.292330	-180.000000	2524.215891	-64.670040	17.891063	8.979282	16.879092	39.125372	-37.693167	-45.000000	-45.000000	1878.089584	-1179.303328	137.000118	-180.000000	1446.318852	389.812997	11.796261	-21.136846	
2.4800	-39.950884	-13.356582	8.016003	-155.303379	803.934516	-4.001726	2.927289	-45.000000	38.698334	-45.000000	-7.279591	-2269.151306	-2454.533413	20.396560	-180.000000	2524.217054	-64.350290	18.003765	8.945082	16.742680	39.013933	-37.326672	-45.000000	-45.000000	1878.259848	-1179.249600	137.162862	-180.000000	1446.473302	391.427737	11.795339	-21.483239	
